<?xml version="1.0" encoding="UTF-8"?>
<!DOCTYPE svg PUBLIC "-//W3C//DTD SVG 1.1//EN" "http://www.w3.org/Graphics/SVG/1.1/DTD/svg11.dtd">
<svg xmlns="http://www.w3.org/2000/svg" version="1.1" width="350px" height="350px" style="shape-rendering:geometricPrecision; text-rendering:geometricPrecision; image-rendering:optimizeQuality; fill-rule:evenodd; clip-rule:evenodd" xmlns:xlink="http://www.w3.org/1999/xlink">
<g><path style="opacity:0.937" fill="#b39cda" d="M 113.5,23.5 C 111.898,25.0739 109.898,25.7406 107.5,25.5C 109.102,23.9261 111.102,23.2594 113.5,23.5 Z"/></g>
<g><path style="opacity:0.953" fill="#b29ccf" d="M 122.5,23.5 C 124.553,23.4021 126.22,24.0687 127.5,25.5C 125.219,25.9227 123.552,25.256 122.5,23.5 Z"/></g>
<g><path style="opacity:0.184" fill="#ece1f9" d="M 261.5,29.5 C 259.407,28.9553 257.407,28.122 255.5,27C 251.973,26.1925 248.64,26.3592 245.5,27.5C 242.167,28.1667 238.833,28.8333 235.5,29.5C 241.936,25.7755 248.936,24.6088 256.5,26C 258.584,26.6972 260.251,27.8639 261.5,29.5 Z"/></g>
<g><path style="opacity:0.71" fill="#c5b1e5" d="M 107.5,25.5 C 107.027,26.9063 106.027,27.573 104.5,27.5C 104.973,26.0937 105.973,25.427 107.5,25.5 Z"/></g>
<g><path style="opacity:0.22" fill="#dbc6f3" d="M 127.5,25.5 C 129.027,25.427 130.027,26.0937 130.5,27.5C 128.973,27.573 127.973,26.9063 127.5,25.5 Z"/></g>
<g><path style="opacity:0.447" fill="#dcd0f4" d="M 104.5,27.5 C 103.5,29.1667 102.167,30.5 100.5,31.5C 100.833,29.1667 102.167,27.8333 104.5,27.5 Z"/></g>
<g><path style="opacity:0.384" fill="#e7dcf8" d="M 131.5,27.5 C 133.587,28.5846 134.92,30.2512 135.5,32.5C 133.413,31.4154 132.08,29.7488 131.5,27.5 Z"/></g>
<g><path style="opacity:1" fill="#baa5df" d="M 245.5,27.5 C 249.814,28.2745 254.147,28.9412 258.5,29.5C 258.33,30.8221 258.663,31.9887 259.5,33C 260.825,32.8516 261.992,33.0183 263,33.5C 265.65,37.7802 267.316,42.4469 268,47.5C 268.495,58.2105 267.995,68.8772 266.5,79.5C 266.5,81.1667 266.5,82.8333 266.5,84.5C 265.685,85.4293 264.852,86.4293 264,87.5C 264.069,76.7998 262.569,66.4664 259.5,56.5C 259.714,54.8561 259.38,53.3561 258.5,52C 255.412,51.4208 252.745,50.0875 250.5,48C 245.5,47.3333 240.5,47.3333 235.5,48C 232.714,48.575 230.714,50.075 229.5,52.5C 227.819,54.0075 225.819,55.0075 223.5,55.5C 219.532,56.7686 215.532,58.102 211.5,59.5C 211.5,60.8333 211.5,62.1667 211.5,63.5C 209.071,63.8844 206.737,64.551 204.5,65.5C 204.671,62.2027 204.005,61.8694 202.5,64.5C 201.549,63.6744 200.549,63.5078 199.5,64C 200.872,65.2419 201.872,66.7419 202.5,68.5C 200.472,70.8379 198.472,73.1712 196.5,75.5C 195.571,76.6888 195.238,78.0222 195.5,79.5C 194.167,79.5 192.833,79.5 191.5,79.5C 191.5,80.5 191.5,81.5 191.5,82.5C 189.077,82.5764 187.244,81.5764 186,79.5C 185.5,79.8333 185,80.1667 184.5,80.5C 185.751,81.6311 186.751,82.9644 187.5,84.5C 186.927,87.0853 185.261,88.0853 182.5,87.5C 182.037,90.221 181.371,92.8877 180.5,95.5C 176.563,99.4713 172.23,102.971 167.5,106C 168.5,106.333 169.5,106.667 170.5,107C 168.963,108.11 168.297,109.61 168.5,111.5C 167.167,111.5 165.833,111.5 164.5,111.5C 164.254,114.47 162.588,115.803 159.5,115.5C 159.672,113.508 159.005,111.842 157.5,110.5C 158.95,109.15 159.617,107.484 159.5,105.5C 163.5,99.5 167.5,93.5 171.5,87.5C 178.316,79.9059 185.15,72.2392 192,64.5C 201.396,55.5985 210.896,46.9318 220.5,38.5C 224.708,34.3151 229.708,31.3151 235.5,29.5C 238.833,28.8333 242.167,28.1667 245.5,27.5 Z"/></g>
<g><path style="opacity:1" fill="#c1b2dd" d="M 245.5,27.5 C 248.64,26.3592 251.973,26.1925 255.5,27C 257.407,28.122 259.407,28.9553 261.5,29.5C 263.017,29.5106 264.184,30.1772 265,31.5C 267.811,35.7661 269.311,40.4328 269.5,45.5C 270.025,57.1149 269.025,68.4483 266.5,79.5C 267.995,68.8772 268.495,58.2105 268,47.5C 267.316,42.4469 265.65,37.7802 263,33.5C 261.992,33.0183 260.825,32.8516 259.5,33C 258.663,31.9887 258.33,30.8221 258.5,29.5C 254.147,28.9412 249.814,28.2745 245.5,27.5 Z"/></g>
<g><path style="opacity:1" fill="#cec3e2" d="M 93.5,34.5 C 93.472,32.4176 94.1387,30.5843 95.5,29C 91.8069,29.4883 88.1403,30.3216 84.5,31.5C 88.4019,26.1986 93.4019,24.3652 99.5,26C 97.2481,28.7361 95.2481,31.5695 93.5,34.5 Z"/></g>
<g><path style="opacity:1" fill="#764bc3" d="M 135.5,36.5 C 136.222,36.9175 136.722,37.5842 137,38.5C 137.499,43.1548 137.666,47.8215 137.5,52.5C 134.806,54.3279 132.806,56.6613 131.5,59.5C 130.5,59.5 129.5,59.5 128.5,59.5C 128.5,60.5 128.5,61.5 128.5,62.5C 124.817,62.9466 121.15,63.6133 117.5,64.5C 114.483,64.2317 111.483,63.8984 108.5,63.5C 107.833,63.5 107.5,63.1667 107.5,62.5C 104.61,59.7722 102.277,56.6055 100.5,53C 99.2808,50.616 99.2808,48.2826 100.5,46C 97.7446,42.6926 97.9113,39.5259 101,36.5C 101.17,38.7148 101.837,40.7148 103,42.5C 103.369,39.123 103.369,35.7897 103,32.5C 107.011,34.5067 109.011,37.84 109,42.5C 109.498,39.1832 109.665,35.8499 109.5,32.5C 111.827,32.7529 113.827,32.0863 115.5,30.5C 112.603,29.0911 109.937,29.4244 107.5,31.5C 106.119,28.6824 107.119,27.1824 110.5,27C 116.158,26.968 121.825,27.3013 127.5,28C 128.416,28.3742 129.25,28.8742 130,29.5C 130.333,31.5 130.667,33.5 131,35.5C 131.333,34.5 131.667,33.5 132,32.5C 132.74,34.3187 133.907,35.6521 135.5,36.5 Z"/></g>
<g><path style="opacity:1" fill="#baa5df" d="M 93.5,34.5 C 92.2502,34.5774 91.4169,35.244 91,36.5C 90.5065,38.1341 90.3398,39.8008 90.5,41.5C 87.2407,52.4608 84.7407,63.7941 83,75.5C 82.1376,73.913 81.4709,72.2464 81,70.5C 80.8276,64.3193 80.3276,58.3193 79.5,52.5C 79.6635,45.1629 81.3301,38.1629 84.5,31.5C 88.1403,30.3216 91.8069,29.4883 95.5,29C 94.1387,30.5843 93.472,32.4176 93.5,34.5 Z"/></g>
<g><path style="opacity:1" fill="#7750bd" d="M 113.5,23.5 C 116.5,23.5 119.5,23.5 122.5,23.5C 123.552,25.256 125.219,25.9227 127.5,25.5C 127.973,26.9063 128.973,27.573 130.5,27.5C 130.833,27.5 131.167,27.5 131.5,27.5C 132.08,29.7488 133.413,31.4154 135.5,32.5C 135.5,33.8333 135.5,35.1667 135.5,36.5C 133.907,35.6521 132.74,34.3187 132,32.5C 131.667,33.5 131.333,34.5 131,35.5C 130.667,33.5 130.333,31.5 130,29.5C 129.25,28.8742 128.416,28.3742 127.5,28C 121.825,27.3013 116.158,26.968 110.5,27C 107.119,27.1824 106.119,28.6824 107.5,31.5C 109.937,29.4244 112.603,29.0911 115.5,30.5C 113.827,32.0863 111.827,32.7529 109.5,32.5C 109.665,35.8499 109.498,39.1832 109,42.5C 109.011,37.84 107.011,34.5067 103,32.5C 103.369,35.7897 103.369,39.123 103,42.5C 101.837,40.7148 101.17,38.7148 101,36.5C 97.9113,39.5259 97.7446,42.6926 100.5,46C 99.2808,48.2826 99.2808,50.616 100.5,53C 102.277,56.6055 104.61,59.7722 107.5,62.5C 106.833,62.5 106.167,62.5 105.5,62.5C 95.6293,53.4358 93.9627,43.1025 100.5,31.5C 102.167,30.5 103.5,29.1667 104.5,27.5C 106.027,27.573 107.027,26.9063 107.5,25.5C 109.898,25.7406 111.898,25.0739 113.5,23.5 Z"/></g>
<g><path style="opacity:0.459" fill="#e5dcf3" d="M 220.5,38.5 C 210.896,46.9318 201.396,55.5985 192,64.5C 185.15,72.2392 178.316,79.9059 171.5,87.5C 184.833,68.1667 201.167,51.8333 220.5,38.5 Z"/></g>
<g><path style="opacity:0.564" fill="#dcd0f0" d="M 93.5,34.5 C 91.4185,40.5838 91.4185,46.5838 93.5,52.5C 93.0576,53.7387 92.3909,54.7387 91.5,55.5C 90.8734,50.8592 90.5401,46.1925 90.5,41.5C 90.3398,39.8008 90.5065,38.1341 91,36.5C 91.4169,35.244 92.2502,34.5774 93.5,34.5 Z"/></g>
<g><path style="opacity:0.937" fill="#b8a3db" d="M 135.5,32.5 C 139.867,38.8344 140.533,45.501 137.5,52.5C 137.666,47.8215 137.499,43.1548 137,38.5C 136.722,37.5842 136.222,36.9175 135.5,36.5C 135.5,35.1667 135.5,33.8333 135.5,32.5 Z"/></g>
<g><path style="opacity:0.329" fill="#d3bff0" d="M 100.5,31.5 C 93.9627,43.1025 95.6293,53.4358 105.5,62.5C 100.69,59.9191 97.5233,55.9191 96,50.5C 94.9625,44.6058 95.6292,38.9391 98,33.5C 98.7083,32.6195 99.5416,31.9528 100.5,31.5 Z"/></g>
<g><path style="opacity:0.894" fill="#ccbee2" d="M 259.5,56.5 C 258.24,54.6329 256.573,53.2995 254.5,52.5C 246.258,48.6054 237.924,48.6054 229.5,52.5C 230.714,50.075 232.714,48.575 235.5,48C 240.5,47.3333 245.5,47.3333 250.5,48C 252.745,50.0875 255.412,51.4208 258.5,52C 259.38,53.3561 259.714,54.8561 259.5,56.5 Z"/></g>
<g><path style="opacity:0.556" fill="#e4daf2" d="M 269.5,45.5 C 271.303,59.35 270.303,73.0166 266.5,86.5C 266.5,85.8333 266.5,85.1667 266.5,84.5C 266.5,82.8333 266.5,81.1667 266.5,79.5C 269.025,68.4483 270.025,57.1149 269.5,45.5 Z"/></g>
<g><path style="opacity:0.749" fill="#baa2dc" d="M 137.5,52.5 C 136.872,55.09 135.705,57.4234 134,59.5C 133.184,60.8228 132.017,61.4894 130.5,61.5C 130.833,60.8333 131.167,60.1667 131.5,59.5C 132.806,56.6613 134.806,54.3279 137.5,52.5 Z"/></g>
<g><path style="opacity:0.18" fill="#e2daf1" d="M 84.5,31.5 C 81.3301,38.1629 79.6635,45.1629 79.5,52.5C 78.9777,69.3613 81.4777,85.6946 87,101.5C 87.4955,99.5273 87.6621,97.5273 87.5,95.5C 89.9126,104.973 92.5793,114.473 95.5,124C 94.4642,125.617 93.2975,125.784 92,124.5C 83.8426,102.872 79.0093,80.539 77.5,57.5C 77.5025,52.4442 78.0025,47.4442 79,42.5C 79.81,38.2131 81.6433,34.5464 84.5,31.5 Z"/></g>
<g><path style="opacity:0.455" fill="#e9e2f6" d="M 148.5,55.5 C 151.5,57.8333 154.167,60.5 156.5,63.5C 152.805,61.8054 150.139,59.1387 148.5,55.5 Z"/></g>
<g><path style="opacity:1" fill="#bdacda" d="M 90.5,41.5 C 90.5401,46.1925 90.8734,50.8592 91.5,55.5C 90.7368,57.3684 89.7368,59.0351 88.5,60.5C 87.2101,61.0577 86.3768,62.0577 86,63.5C 85.3333,72.5 85.3333,81.5 86,90.5C 86.2321,91.7375 86.7321,92.7375 87.5,93.5C 87.5,94.1667 87.5,94.8333 87.5,95.5C 87.6621,97.5273 87.4955,99.5273 87,101.5C 81.4777,85.6946 78.9777,69.3613 79.5,52.5C 80.3276,58.3193 80.8276,64.3193 81,70.5C 81.4709,72.2464 82.1376,73.913 83,75.5C 84.7407,63.7941 87.2407,52.4608 90.5,41.5 Z"/></g>
<g><path style="opacity:1" fill="#d7ceea" d="M 148.5,55.5 C 146.606,54.9524 144.94,53.9524 143.5,52.5C 141.673,56.1471 140.34,59.9804 139.5,64C 140.985,66.317 142.652,68.4836 144.5,70.5C 140.92,68.5924 137.92,65.9257 135.5,62.5C 138.764,58.9716 141.264,54.9716 143,50.5C 145.328,51.6635 147.162,53.3302 148.5,55.5 Z"/></g>
<g><path style="opacity:0.243" fill="#dccbf7" d="M 105.5,62.5 C 106.167,62.5 106.833,62.5 107.5,62.5C 107.5,63.1667 107.833,63.5 108.5,63.5C 108.5,63.8333 108.5,64.1667 108.5,64.5C 106.973,64.573 105.973,63.9063 105.5,62.5 Z"/></g>
<g><path style="opacity:0.996" fill="#997dc8" d="M 131.5,59.5 C 131.167,60.1667 130.833,60.8333 130.5,61.5C 123.855,66.8343 116.521,67.8343 108.5,64.5C 108.5,64.1667 108.5,63.8333 108.5,63.5C 111.483,63.8984 114.483,64.2317 117.5,64.5C 121.15,63.6133 124.817,62.9466 128.5,62.5C 128.5,61.5 128.5,60.5 128.5,59.5C 129.5,59.5 130.5,59.5 131.5,59.5 Z"/></g>
<g><path style="opacity:0.588" fill="#ebe5f5" d="M 156.5,63.5 C 158.587,64.5846 159.92,66.2512 160.5,68.5C 158.413,67.4154 157.08,65.7488 156.5,63.5 Z"/></g>
<g><path style="opacity:1" fill="#c8b9e2" d="M 223.5,55.5 C 213.834,63.0164 204.501,71.0164 195.5,79.5C 195.238,78.0222 195.571,76.6888 196.5,75.5C 198.472,73.1712 200.472,70.8379 202.5,68.5C 201.872,66.7419 200.872,65.2419 199.5,64C 200.549,63.5078 201.549,63.6744 202.5,64.5C 204.005,61.8694 204.671,62.2027 204.5,65.5C 206.737,64.551 209.071,63.8844 211.5,63.5C 211.5,62.1667 211.5,60.8333 211.5,59.5C 215.532,58.102 219.532,56.7686 223.5,55.5 Z"/></g>
<g><path style="opacity:1" fill="#bba7df" d="M 148.5,55.5 C 150.139,59.1387 152.805,61.8054 156.5,63.5C 157.08,65.7488 158.413,67.4154 160.5,68.5C 162.091,71.4309 164.091,74.0976 166.5,76.5C 168.343,80.6398 167.343,83.9731 163.5,86.5C 160.899,85.4246 158.566,84.0913 156.5,82.5C 152.167,78.8333 148.167,74.8333 144.5,70.5C 142.652,68.4836 140.985,66.317 139.5,64C 140.34,59.9804 141.673,56.1471 143.5,52.5C 144.94,53.9524 146.606,54.9524 148.5,55.5 Z"/></g>
<g><path style="opacity:0.655" fill="#e8dff4" d="M 160.5,68.5 C 164.131,71.6293 167.631,74.9626 171,78.5C 171.765,80.0657 171.598,81.3991 170.5,82.5C 170.378,79.7079 169.044,77.7079 166.5,76.5C 164.091,74.0976 162.091,71.4309 160.5,68.5 Z"/></g>
<g><path style="opacity:1" fill="#cbbde3" d="M 195.5,79.5 C 190.472,84.8595 185.472,90.1929 180.5,95.5C 181.371,92.8877 182.037,90.221 182.5,87.5C 185.261,88.0853 186.927,87.0853 187.5,84.5C 186.751,82.9644 185.751,81.6311 184.5,80.5C 185,80.1667 185.5,79.8333 186,79.5C 187.244,81.5764 189.077,82.5764 191.5,82.5C 191.5,81.5 191.5,80.5 191.5,79.5C 192.833,79.5 194.167,79.5 195.5,79.5 Z"/></g>
<g><path style="opacity:1" fill="#c8bbe0" d="M 166.5,76.5 C 169.044,77.7079 170.378,79.7079 170.5,82.5C 166.061,93.0423 161.395,93.0423 156.5,82.5C 158.566,84.0913 160.899,85.4246 163.5,86.5C 167.343,83.9731 168.343,80.6398 166.5,76.5 Z"/></g>
<g><path style="opacity:0.329" fill="#eadff9" d="M 88.5,60.5 C 86.2613,71.4245 85.9279,82.4245 87.5,93.5C 86.7321,92.7375 86.2321,91.7375 86,90.5C 85.3333,81.5 85.3333,72.5 86,63.5C 86.3768,62.0577 87.2101,61.0577 88.5,60.5 Z"/></g>
<g><path style="opacity:0.435" fill="#e4dbf2" d="M 171.5,87.5 C 167.5,93.5 163.5,99.5 159.5,105.5C 158.5,106.167 157.5,106.833 156.5,107.5C 160.738,100.262 165.738,93.5956 171.5,87.5 Z"/></g>
<g><path style="opacity:1" fill="#d1c3e9" d="M 180.5,95.5 C 176.878,101.122 172.878,106.455 168.5,111.5C 168.297,109.61 168.963,108.11 170.5,107C 169.5,106.667 168.5,106.333 167.5,106C 172.23,102.971 176.563,99.4713 180.5,95.5 Z"/></g>
<g><path style="opacity:1" fill="#cec2e5" d="M 202.5,122.5 C 202.5,123.167 202.5,123.833 202.5,124.5C 200.23,121.633 197.73,118.967 195,116.5C 194.121,112.296 191.787,109.296 188,107.5C 187.781,106.062 187.281,104.729 186.5,103.5C 179.625,105.533 178.292,109.2 182.5,114.5C 179.808,112.797 177.808,110.464 176.5,107.5C 178.934,104.777 181.601,102.277 184.5,100C 185.5,99.3333 186.5,99.3333 187.5,100C 193.14,107.128 198.14,114.628 202.5,122.5 Z"/></g>
<g><path style="opacity:0.949" fill="#d8cfe8" d="M 254.5,52.5 C 256.573,53.2995 258.24,54.6329 259.5,56.5C 262.569,66.4664 264.069,76.7998 264,87.5C 264.852,86.4293 265.685,85.4293 266.5,84.5C 266.5,85.1667 266.5,85.8333 266.5,86.5C 263.986,99.7082 260.653,112.708 256.5,125.5C 255.127,125.657 253.793,125.49 252.5,125C 257.875,109.459 261.209,93.4588 262.5,77C 262.358,67.905 259.692,59.7384 254.5,52.5 Z"/></g>
<g><path style="opacity:0.565" fill="#e5ddf2" d="M 156.5,107.5 C 155.99,110.674 154.323,113.008 151.5,114.5C 152.433,111.63 154.1,109.296 156.5,107.5 Z"/></g>
<g><path style="opacity:1" fill="#cec2e3" d="M 182.5,114.5 C 186.497,116.522 188.997,119.855 190,124.5C 192.874,125.532 194.374,127.532 194.5,130.5C 194.167,130.5 193.833,130.5 193.5,130.5C 191.967,128.645 190.3,126.812 188.5,125C 179.167,124.333 169.833,124.333 160.5,125C 157.147,128.212 154.147,131.712 151.5,135.5C 152.709,132.279 154.376,129.279 156.5,126.5C 154.989,124.162 155.323,123.496 157.5,124.5C 158.904,121.793 160.238,119.126 161.5,116.5C 162.5,116.5 163.5,116.5 164.5,116.5C 164.262,118.404 163.262,119.738 161.5,120.5C 160.733,121.172 160.066,122.005 159.5,123C 169.184,123.832 178.851,123.665 188.5,122.5C 188.376,121.893 188.043,121.56 187.5,121.5C 185.453,119.45 183.786,117.117 182.5,114.5 Z"/></g>
<g><path style="opacity:0.076" fill="#f5effe" d="M 161.5,120.5 C 165.445,121.825 169.778,122.492 174.5,122.5C 179.013,122.499 183.347,122.166 187.5,121.5C 188.043,121.56 188.376,121.893 188.5,122.5C 178.851,123.665 169.184,123.832 159.5,123C 160.066,122.005 160.733,121.172 161.5,120.5 Z"/></g>
<g><path style="opacity:0.094" fill="#e1dcec" d="M 146.5,121.5 C 146.426,123.411 145.426,124.578 143.5,125C 144.167,125.333 144.833,125.667 145.5,126C 144.295,127.376 142.962,128.542 141.5,129.5C 141.414,128.504 141.748,127.671 142.5,127C 118.431,127.653 94.7643,131.153 71.5,137.5C 71.9175,136.778 72.5842,136.278 73.5,136C 71.5273,135.505 69.5273,135.338 67.5,135.5C 90.6449,129.31 114.312,125.476 138.5,124C 141.482,123.903 144.149,123.07 146.5,121.5 Z"/></g>
<g><path style="opacity:0.557" fill="#e4deec" d="M 202.5,122.5 C 219.466,124.479 236.466,126.645 253.5,129C 263.084,130.645 272.417,132.812 281.5,135.5C 277.251,135.397 273.084,134.73 269,133.5C 267.93,133.528 267.097,133.861 266.5,134.5C 246.733,130.094 226.733,127.428 206.5,126.5C 206.5,125.833 206.167,125.5 205.5,125.5C 204.791,124.596 203.791,124.263 202.5,124.5C 202.5,123.833 202.5,123.167 202.5,122.5 Z"/></g>
<g><path style="opacity:0.976" fill="#d8cdee" d="M 205.5,125.5 C 206.167,125.5 206.5,125.833 206.5,126.5C 207.242,128.98 208.242,131.313 209.5,133.5C 205.692,131.779 204.359,129.112 205.5,125.5 Z"/></g>
<g><path style="opacity:0.978" fill="#cec5e3" d="M 67.5,135.5 C 69.5273,135.338 71.5273,135.505 73.5,136C 72.5842,136.278 71.9175,136.778 71.5,137.5C 67.5786,139.029 63.5786,140.363 59.5,141.5C 59.0296,140.307 58.0296,139.64 56.5,139.5C 54.1817,139.997 51.8484,140.33 49.5,140.5C 55.142,137.92 61.142,136.253 67.5,135.5 Z"/></g>
<g><path style="opacity:0.361" fill="#e6dcf5" d="M 193.5,130.5 C 193.833,130.5 194.167,130.5 194.5,130.5C 209.222,152.281 221.555,175.281 231.5,199.5C 225.108,187.718 218.941,175.718 213,163.5C 206.477,152.445 199.977,141.445 193.5,130.5 Z"/></g>
<g><path style="opacity:0.075" fill="#efe6f8" d="M 281.5,135.5 C 292.305,137.658 302.638,140.991 312.5,145.5C 301.954,142.539 291.621,139.206 281.5,135.5 Z"/></g>
<g><path style="opacity:1" fill="#bba7df" d="M 159.5,105.5 C 159.617,107.484 158.95,109.15 157.5,110.5C 159.005,111.842 159.672,113.508 159.5,115.5C 162.588,115.803 164.254,114.47 164.5,111.5C 165.833,111.5 167.167,111.5 168.5,111.5C 167.396,113.389 166.063,115.055 164.5,116.5C 163.5,116.5 162.5,116.5 161.5,116.5C 160.238,119.126 158.904,121.793 157.5,124.5C 155.323,123.496 154.989,124.162 156.5,126.5C 154.376,129.279 152.709,132.279 151.5,135.5C 149.05,137.629 147.383,140.296 146.5,143.5C 143.937,144.592 141.77,146.258 140,148.5C 139.353,153.456 137.853,158.123 135.5,162.5C 133.926,167.32 131.593,171.653 128.5,175.5C 123.866,181.772 120.532,188.772 118.5,196.5C 115.272,199.069 113.272,202.402 112.5,206.5C 106.832,207.329 104.332,204.995 105,199.5C 108.669,191.464 112.336,183.464 116,175.5C 120.32,168.199 124.653,160.866 129,153.5C 129.49,152.207 129.657,150.873 129.5,149.5C 132.335,146.491 135.169,143.491 138,140.5C 139.213,136.767 140.38,133.1 141.5,129.5C 142.962,128.542 144.295,127.376 145.5,126C 144.833,125.667 144.167,125.333 143.5,125C 145.426,124.578 146.426,123.411 146.5,121.5C 147.786,118.883 149.453,116.55 151.5,114.5C 154.323,113.008 155.99,110.674 156.5,107.5C 157.5,106.833 158.5,106.167 159.5,105.5 Z"/></g>
<g><path style="opacity:0.271" fill="#e9e0f7" d="M 151.5,135.5 C 150.617,138.704 148.95,141.371 146.5,143.5C 147.383,140.296 149.05,137.629 151.5,135.5 Z"/></g>
<g><path style="opacity:1" fill="#d5cae7" d="M 209.5,133.5 C 212,136.494 214,139.827 215.5,143.5C 214.504,143.586 213.671,143.252 213,142.5C 211.047,139.745 209.88,136.745 209.5,133.5 Z"/></g>
<g><path style="opacity:1" fill="#ccc0e3" d="M 141.5,129.5 C 140.38,133.1 139.213,136.767 138,140.5C 135.169,143.491 132.335,146.491 129.5,149.5C 132.497,142.162 136.497,135.495 141.5,129.5 Z"/></g>
<g><path style="opacity:0.82" fill="#e6def1" d="M 49.5,140.5 C 46.3401,143 42.6734,144.333 38.5,144.5C 41.7966,142.399 45.4632,141.065 49.5,140.5 Z"/></g>
<g><path style="opacity:0.6" fill="#bdabde" d="M 166.5,143.5 C 174.649,141.681 182.649,142.514 190.5,146C 192.996,147.331 194.996,149.164 196.5,151.5C 194.5,150.5 192.5,149.5 190.5,148.5C 183.265,143.93 175.265,142.264 166.5,143.5 Z"/></g>
<g><path style="opacity:0.482" fill="#ebeaf0" d="M 249.5,135.5 C 250.289,135.783 250.956,136.283 251.5,137C 247.48,146.876 243.313,156.709 239,166.5C 235.264,172.077 234.264,171.743 236,165.5C 240.41,155.429 244.91,145.429 249.5,135.5 Z"/></g>
<g><path style="opacity:0.82" fill="#ae98d3" d="M 166.5,143.5 C 164.316,145.585 161.649,146.585 158.5,146.5C 160.684,144.415 163.351,143.415 166.5,143.5 Z"/></g>
<g><path style="opacity:0.325" fill="#ddd2ee" d="M 59.5,141.5 C 48.8775,145.479 39.5442,151.479 31.5,159.5C 32.809,156.195 34.4757,153.028 36.5,150C 42.9296,148.455 48.9296,145.788 54.5,142C 56.1341,141.506 57.8008,141.34 59.5,141.5 Z"/></g>
<g><path style="opacity:1" fill="#5929b0" d="M 190.5,148.5 C 192.5,149.5 194.5,150.5 196.5,151.5C 197.419,154.089 199.086,156.089 201.5,157.5C 201.427,159.027 202.094,160.027 203.5,160.5C 203.12,162.698 203.787,164.365 205.5,165.5C 206.125,168.583 206.458,171.749 206.5,175C 206.714,179.133 206.048,182.966 204.5,186.5C 203.069,187.78 202.402,189.447 202.5,191.5C 202.5,192.167 202.167,192.5 201.5,192.5C 197.833,195.5 194.5,198.833 191.5,202.5C 188.833,203.167 186.167,203.833 183.5,204.5C 175.737,204.684 168.07,204.017 160.5,202.5C 162.402,197.564 161.236,196.564 157,199.5C 155.862,199.011 154.695,198.678 153.5,198.5C 153.249,196.83 152.582,195.33 151.5,194C 152.28,192.927 152.113,191.76 151,190.5C 150.107,191.711 149.274,191.711 148.5,190.5C 147.806,187.912 146.64,185.579 145,183.5C 144.5,177.175 144.334,170.842 144.5,164.5C 146.595,161.226 148.929,158.06 151.5,155C 152.5,154.333 153.5,154.333 154.5,155C 153.289,155.893 153.289,156.726 154.5,157.5C 154.833,157.167 155.167,156.833 155.5,156.5C 155.694,154.597 155.694,152.763 155.5,151C 158.76,151.482 162.093,151.482 165.5,151C 164.167,150.333 162.833,149.667 161.5,149C 166.816,144.814 172.816,143.481 179.5,145C 183.009,146.759 186.675,147.926 190.5,148.5 Z"/></g>
<g><path style="opacity:1" fill="#c7b9e0" d="M 266.5,134.5 C 267.097,133.861 267.93,133.528 269,133.5C 273.084,134.73 277.251,135.397 281.5,135.5C 291.621,139.206 301.954,142.539 312.5,145.5C 314.153,145.66 315.486,146.326 316.5,147.5C 313.103,146.808 309.77,146.808 306.5,147.5C 307.18,148.86 307.847,150.193 308.5,151.5C 295.353,143.891 281.353,138.225 266.5,134.5 Z"/></g>
<g><path style="opacity:0.557" fill="#c8b0ed" d="M 158.5,146.5 C 158.027,147.906 157.027,148.573 155.5,148.5C 155.973,147.094 156.973,146.427 158.5,146.5 Z"/></g>
<g><path style="opacity:0.945" fill="#ddd3ee" d="M 38.5,144.5 C 31.4538,149.023 24.1205,153.023 16.5,156.5C 22.896,150.965 30.2293,146.965 38.5,144.5 Z"/></g>
<g><path style="opacity:1" fill="#d0c3e5" d="M 146.5,143.5 C 143.225,150.097 139.558,156.43 135.5,162.5C 137.853,158.123 139.353,153.456 140,148.5C 141.77,146.258 143.937,144.592 146.5,143.5 Z"/></g>
<g><path style="opacity:0.518" fill="#edebf1" d="M 96.5,133.5 C 98.4109,133.574 99.5776,134.574 100,136.5C 104.114,147.512 108.614,158.346 113.5,169C 113.167,169.167 112.833,169.333 112.5,169.5C 109.176,164.86 106.343,159.86 104,154.5C 101.552,147.818 98.7182,141.318 95.5,135C 96.056,134.617 96.3893,134.117 96.5,133.5 Z"/></g>
<g><path style="opacity:1" fill="#5b31a7" d="M 166.5,143.5 C 175.265,142.264 183.265,143.93 190.5,148.5C 186.675,147.926 183.009,146.759 179.5,145C 172.816,143.481 166.816,144.814 161.5,149C 162.833,149.667 164.167,150.333 165.5,151C 162.093,151.482 158.76,151.482 155.5,151C 155.694,152.763 155.694,154.597 155.5,156.5C 155.167,156.833 154.833,157.167 154.5,157.5C 153.289,156.726 153.289,155.893 154.5,155C 153.5,154.333 152.5,154.333 151.5,155C 148.929,158.06 146.595,161.226 144.5,164.5C 145.038,162.883 145.371,161.216 145.5,159.5C 148.805,155.859 152.138,152.192 155.5,148.5C 157.027,148.573 158.027,147.906 158.5,146.5C 161.649,146.585 164.316,145.585 166.5,143.5 Z"/></g>
<g><path style="opacity:0.38" fill="#e3daf2" d="M 316.5,147.5 C 320.655,148.742 324.322,150.742 327.5,153.5C 323.621,151.729 319.621,150.229 315.5,149C 316.056,148.617 316.389,148.117 316.5,147.5 Z"/></g>
<g><path style="opacity:0.863" fill="#b39adb" d="M 196.5,151.5 C 198.914,152.911 200.581,154.911 201.5,157.5C 199.086,156.089 197.419,154.089 196.5,151.5 Z"/></g>
<g><path style="opacity:1" fill="#beacde" d="M 316.5,147.5 C 316.389,148.117 316.056,148.617 315.5,149C 319.621,150.229 323.621,151.729 327.5,153.5C 330.37,154.433 332.704,156.1 334.5,158.5C 332.5,158.5 330.5,158.5 328.5,158.5C 328.5,157.5 328.5,156.5 328.5,155.5C 322.174,155.174 319.841,158.174 321.5,164.5C 320.442,163.4 319.608,162.066 319,160.5C 318.184,159.177 317.017,158.511 315.5,158.5C 313.36,155.939 311.027,153.605 308.5,151.5C 307.847,150.193 307.18,148.86 306.5,147.5C 309.77,146.808 313.103,146.808 316.5,147.5 Z"/></g>
<g><path style="opacity:0.384" fill="#d3c1f1" d="M 155.5,148.5 C 152.138,152.192 148.805,155.859 145.5,159.5C 147.442,154.559 150.775,150.892 155.5,148.5 Z"/></g>
<g><path style="opacity:1" fill="#baa5df" d="M 59.5,141.5 C 57.8008,141.34 56.1341,141.506 54.5,142C 48.9296,145.788 42.9296,148.455 36.5,150C 34.4757,153.028 32.809,156.195 31.5,159.5C 26.8159,163.781 25.3159,169.115 27,175.5C 27.3768,176.942 28.2101,177.942 29.5,178.5C 30.4013,179.29 31.0679,180.29 31.5,181.5C 34.3172,186.482 38.3172,190.316 43.5,193C 48.5251,196.015 53.8585,198.182 59.5,199.5C 63.7843,200.261 67.7843,201.595 71.5,203.5C 73.4385,205.163 75.7718,205.829 78.5,205.5C 78.8333,205.5 79.1667,205.5 79.5,205.5C 79.9704,206.693 80.9704,207.36 82.5,207.5C 86.8031,208.428 91.1364,209.094 95.5,209.5C 105.867,212.284 116.534,214.117 127.5,215C 148.813,216.277 170.147,216.777 191.5,216.5C 204.705,216.271 217.871,215.604 231,214.5C 231.772,214.645 232.439,214.978 233,215.5C 233.497,218.146 233.664,220.813 233.5,223.5C 230.447,223.111 227.78,223.777 225.5,225.5C 225.167,225.5 224.833,225.5 224.5,225.5C 188.143,227.06 151.81,226.727 115.5,224.5C 107.411,223.252 99.4114,221.419 91.5,219C 82.8743,217.513 74.2076,216.347 65.5,215.5C 62.3216,212.932 58.6549,211.098 54.5,210C 49.2308,209.032 44.2308,207.365 39.5,205C 37.1902,204.503 34.8568,204.337 32.5,204.5C 30.847,204.34 29.5137,203.674 28.5,202.5C 24.1462,196.814 18.4795,193.148 11.5,191.5C 9.92389,188.074 8.09056,184.74 6,181.5C 5.1785,178.883 4.6785,176.216 4.5,173.5C 4.5,173.167 4.5,172.833 4.5,172.5C 7.28532,166.364 11.2853,161.031 16.5,156.5C 24.1205,153.023 31.4538,149.023 38.5,144.5C 42.6734,144.333 46.3401,143 49.5,140.5C 51.8484,140.33 54.1817,139.997 56.5,139.5C 58.0296,139.64 59.0296,140.307 59.5,141.5 Z"/></g>
<g><path style="opacity:0.271" fill="#d9c5f4" d="M 201.5,157.5 C 202.906,157.973 203.573,158.973 203.5,160.5C 202.094,160.027 201.427,159.027 201.5,157.5 Z"/></g>
<g><path style="opacity:0.157" fill="#e5cdf7" d="M 145.5,159.5 C 145.371,161.216 145.038,162.883 144.5,164.5C 144.167,164.5 143.833,164.5 143.5,164.5C 143.402,162.447 144.069,160.78 145.5,159.5 Z"/></g>
<g><path style="opacity:0.827" fill="#b6a3d6" d="M 203.5,160.5 C 204.537,161.93 205.204,163.597 205.5,165.5C 203.787,164.365 203.12,162.698 203.5,160.5 Z"/></g>
<g><path style="opacity:1" fill="#c9bae0" d="M 334.5,158.5 C 338.598,161.265 341.598,164.932 343.5,169.5C 338.38,167.605 335.38,163.938 334.5,158.5 Z"/></g>
<g><path style="opacity:0.278" fill="#e4dbf4" d="M 16.5,156.5 C 11.2853,161.031 7.28532,166.364 4.5,172.5C 5.81859,165.178 9.81859,159.845 16.5,156.5 Z"/></g>
<g><path style="opacity:1" fill="#d8cbeb" d="M 223.5,157.5 C 229.787,166.405 234.787,176.072 238.5,186.5C 232.155,177.476 227.155,167.809 223.5,157.5 Z"/></g>
<g><path style="opacity:1" fill="#baa4df" d="M 334.5,158.5 C 335.38,163.938 338.38,167.605 343.5,169.5C 343.5,171.833 343.5,174.167 343.5,176.5C 342.042,178.932 340.875,181.599 340,184.5C 337.059,185.935 335.559,188.269 335.5,191.5C 332.516,192.99 329.516,194.156 326.5,195C 325.308,192.428 324.308,189.761 323.5,187C 322.167,185.667 320.833,184.333 319.5,183C 320.067,180.318 321.401,178.151 323.5,176.5C 322.67,172.531 322.004,168.531 321.5,164.5C 319.841,158.174 322.174,155.174 328.5,155.5C 328.5,156.5 328.5,157.5 328.5,158.5C 330.5,158.5 332.5,158.5 334.5,158.5 Z"/></g>
<g><path style="opacity:0.506" fill="#dfd3f0" d="M 31.5,159.5 C 27.4235,165.473 26.7568,171.807 29.5,178.5C 28.2101,177.942 27.3768,176.942 27,175.5C 25.3159,169.115 26.8159,163.781 31.5,159.5 Z"/></g>
<g><path style="opacity:1" fill="#5b36a4" d="M 143.5,164.5 C 143.833,164.5 144.167,164.5 144.5,164.5C 144.334,170.842 144.5,177.175 145,183.5C 146.64,185.579 147.806,187.912 148.5,190.5C 149.274,191.711 150.107,191.711 151,190.5C 152.113,191.76 152.28,192.927 151.5,194C 152.582,195.33 153.249,196.83 153.5,198.5C 146.389,192.205 142.723,184.205 142.5,174.5C 142.836,171.159 143.169,167.825 143.5,164.5 Z"/></g>
<g><path style="opacity:0.922" fill="#d6cde6" d="M 343.5,169.5 C 346.602,176.11 345.602,182.11 340.5,187.5C 341.965,183.976 342.965,180.309 343.5,176.5C 343.5,174.167 343.5,171.833 343.5,169.5 Z"/></g>
<g><path style="opacity:0.714" fill="#e3dbef" d="M 4.5,173.5 C 4.6785,176.216 5.1785,178.883 6,181.5C 8.09056,184.74 9.92389,188.074 11.5,191.5C 5.19867,186.895 2.86534,180.895 4.5,173.5 Z"/></g>
<g><path style="opacity:0.306" fill="#e7dcf5" d="M 128.5,175.5 C 125.403,182.691 122.07,189.691 118.5,196.5C 120.532,188.772 123.866,181.772 128.5,175.5 Z"/></g>
<g><path style="opacity:1" fill="#baa5df" d="M 202.5,124.5 C 203.791,124.263 204.791,124.596 205.5,125.5C 204.359,129.112 205.692,131.779 209.5,133.5C 209.88,136.745 211.047,139.745 213,142.5C 213.671,143.252 214.504,143.586 215.5,143.5C 219.174,147.507 221.841,152.173 223.5,157.5C 227.155,167.809 232.155,177.476 238.5,186.5C 239.898,190.633 240.731,194.966 241,199.5C 244.619,206.263 248.119,212.929 251.5,219.5C 252.596,224.801 253.429,229.801 254,234.5C 252.127,233.911 250.46,234.578 249,236.5C 248.748,231.02 246.581,226.687 242.5,223.5C 241.396,220.19 239.729,217.19 237.5,214.5C 237.222,208.621 235.222,203.621 231.5,199.5C 221.555,175.281 209.222,152.281 194.5,130.5C 194.374,127.532 192.874,125.532 190,124.5C 188.997,119.855 186.497,116.522 182.5,114.5C 178.292,109.2 179.625,105.533 186.5,103.5C 187.281,104.729 187.781,106.062 188,107.5C 191.787,109.296 194.121,112.296 195,116.5C 197.73,118.967 200.23,121.633 202.5,124.5 Z"/></g>
<g><path style="opacity:0.498" fill="#d1bdec" d="M 314.5,187.5 C 306.421,182.188 297.755,181.188 288.5,184.5C 294.242,180.323 300.575,179.489 307.5,182C 310.595,182.935 312.929,184.769 314.5,187.5 Z"/></g>
<g><path style="opacity:0.769" fill="#c2ade2" d="M 288.5,184.5 C 286.167,187.5 283.5,190.167 280.5,192.5C 282.167,188.833 284.833,186.167 288.5,184.5 Z"/></g>
<g><path style="opacity:0.227" fill="#dac7f3" d="M 204.5,186.5 C 204.598,188.553 203.931,190.22 202.5,191.5C 202.402,189.447 203.069,187.78 204.5,186.5 Z"/></g>
<g><path style="opacity:1" fill="#764cc3" d="M 314.5,187.5 C 314.833,187.5 315.167,187.5 315.5,187.5C 315.241,189.989 316.241,191.656 318.5,192.5C 322.504,205.118 319.171,215.118 308.5,222.5C 307.791,223.404 306.791,223.737 305.5,223.5C 299.678,223.79 294.012,223.123 288.5,221.5C 281.337,215.501 278.337,207.834 279.5,198.5C 280.15,196.565 280.483,194.565 280.5,192.5C 283.5,190.167 286.167,187.5 288.5,184.5C 297.755,181.188 306.421,182.188 314.5,187.5 Z"/></g>
<g><path style="opacity:0.184" fill="#dbc8f5" d="M 143.5,164.5 C 143.169,167.825 142.836,171.159 142.5,174.5C 142.723,184.205 146.389,192.205 153.5,198.5C 154.167,199.5 154.833,200.5 155.5,201.5C 148.566,197.041 144.066,190.707 142,182.5C 141.333,177.5 141.333,172.5 142,167.5C 142.232,166.263 142.732,165.263 143.5,164.5 Z"/></g>
<g><path style="opacity:0.667" fill="#bda8dd" d="M 315.5,187.5 C 316.89,188.899 317.89,190.566 318.5,192.5C 316.241,191.656 315.241,189.989 315.5,187.5 Z"/></g>
<g><path style="opacity:0.31" fill="#e7dff5" d="M 31.5,181.5 C 39.5442,189.521 48.8775,195.521 59.5,199.5C 53.8585,198.182 48.5251,196.015 43.5,193C 38.3172,190.316 34.3172,186.482 31.5,181.5 Z"/></g>
<g><path style="opacity:0.443" fill="#efeef4" d="M 123.5,191.5 C 124.496,191.414 125.329,191.748 126,192.5C 127.832,195.328 128.832,198.328 129,201.5C 126.062,198.74 124.228,195.406 123.5,191.5 Z"/></g>
<g><path style="opacity:0.98" fill="#ccbee4" d="M 315.5,158.5 C 317.017,158.511 318.184,159.177 319,160.5C 319.608,162.066 320.442,163.4 321.5,164.5C 322.004,168.531 322.67,172.531 323.5,176.5C 321.401,178.151 320.067,180.318 319.5,183C 320.833,184.333 322.167,185.667 323.5,187C 324.308,189.761 325.308,192.428 326.5,195C 329.516,194.156 332.516,192.99 335.5,191.5C 335.559,188.269 337.059,185.935 340,184.5C 340.875,181.599 342.042,178.932 343.5,176.5C 342.965,180.309 341.965,183.976 340.5,187.5C 336.556,193.456 331.222,197.456 324.5,199.5C 323.464,192.928 320.464,187.428 315.5,183C 322.14,174.765 322.14,166.598 315.5,158.5 Z"/></g>
<g><path style="opacity:1" fill="#5c35a6" d="M 183.5,204.5 C 180.26,205.847 176.76,206.514 173,206.5C 168.035,206.009 163.202,205.009 158.5,203.5C 158.027,202.094 157.027,201.427 155.5,201.5C 154.833,200.5 154.167,199.5 153.5,198.5C 154.695,198.678 155.862,199.011 157,199.5C 161.236,196.564 162.402,197.564 160.5,202.5C 168.07,204.017 175.737,204.684 183.5,204.5 Z"/></g>
<g><path style="opacity:0.196" fill="#cab8e8" d="M 201.5,192.5 C 199.167,196.833 195.833,200.167 191.5,202.5C 194.5,198.833 197.833,195.5 201.5,192.5 Z"/></g>
<g><path style="opacity:0.539" fill="#edecf0" d="M 222.5,193.5 C 223.239,193.369 223.906,193.536 224.5,194C 221.879,199.412 218.879,204.579 215.5,209.5C 214.635,210.583 213.635,210.749 212.5,210C 215.719,204.389 219.052,198.889 222.5,193.5 Z"/></g>
<g><path style="opacity:1" fill="#cec1e4" d="M 11.5,191.5 C 18.4795,193.148 24.1462,196.814 28.5,202.5C 21.9735,200.076 16.3068,196.409 11.5,191.5 Z"/></g>
<g><path style="opacity:0.282" fill="#dac7f4" d="M 155.5,201.5 C 157.027,201.427 158.027,202.094 158.5,203.5C 156.973,203.573 155.973,202.906 155.5,201.5 Z"/></g>
<g><path style="opacity:0.059" fill="#f3ebfa" d="M 71.5,203.5 C 74.1522,203.41 76.4855,204.076 78.5,205.5C 75.7718,205.829 73.4385,205.163 71.5,203.5 Z"/></g>
<g><path style="opacity:0.173" fill="#c2ade4" d="M 191.5,202.5 C 186.371,206.244 180.538,207.911 174,207.5C 168.286,207.866 163.12,206.533 158.5,203.5C 163.202,205.009 168.035,206.009 173,206.5C 176.76,206.514 180.26,205.847 183.5,204.5C 186.167,203.833 188.833,203.167 191.5,202.5 Z"/></g>
<g><path style="opacity:0.765" fill="#ded3ef" d="M 231.5,199.5 C 235.222,203.621 237.222,208.621 237.5,214.5C 235.126,209.723 233.126,204.723 231.5,199.5 Z"/></g>
<g><path style="opacity:0.173" fill="#dbcaf5" d="M 280.5,192.5 C 280.483,194.565 280.15,196.565 279.5,198.5C 278.523,201.287 278.19,204.287 278.5,207.5C 277.359,204.36 277.192,201.027 278,197.5C 278.374,195.509 279.207,193.842 280.5,192.5 Z"/></g>
<g><path style="opacity:0.298" fill="#ebe6f6" d="M 79.5,205.5 C 85.0387,206.469 90.372,207.802 95.5,209.5C 91.1364,209.094 86.8031,208.428 82.5,207.5C 80.9704,207.36 79.9704,206.693 79.5,205.5 Z"/></g>
<g><path style="opacity:0.973" fill="#d3c7e7" d="M 129.5,149.5 C 129.657,150.873 129.49,152.207 129,153.5C 124.653,160.866 120.32,168.199 116,175.5C 112.336,183.464 108.669,191.464 105,199.5C 104.332,204.995 106.832,207.329 112.5,206.5C 113.272,202.402 115.272,199.069 118.5,196.5C 117.16,200.51 115.826,204.51 114.5,208.5C 110.14,207.993 105.807,207.327 101.5,206.5C 108.455,186.258 117.788,167.258 129.5,149.5 Z"/></g>
<g><path style="opacity:1" fill="#c9bbe1" d="M 32.5,204.5 C 34.8568,204.337 37.1902,204.503 39.5,205C 44.2308,207.365 49.2308,209.032 54.5,210C 58.6549,211.098 62.3216,212.932 65.5,215.5C 53.812,213.604 42.812,209.937 32.5,204.5 Z"/></g>
<g><path style="opacity:1" fill="#cec2e4" d="M 238.5,186.5 C 244.62,198.416 249.953,210.749 254.5,223.5C 253.143,222.41 252.143,221.076 251.5,219.5C 248.119,212.929 244.619,206.263 241,199.5C 240.731,194.966 239.898,190.633 238.5,186.5 Z"/></g>
<g><path style="opacity:0.204" fill="#f1ecfb" d="M 260.5,207.5 C 258.333,208.641 256,209.641 253.5,210.5C 254.456,212.075 255.123,213.742 255.5,215.5C 255.5,216.167 255.5,216.833 255.5,217.5C 253.69,214.855 252.69,211.855 252.5,208.5C 255.167,208.167 257.833,207.833 260.5,207.5 Z"/></g>
<g><path style="opacity:1" fill="#baa6de" d="M 260.5,207.5 C 260.833,207.5 261.167,207.5 261.5,207.5C 265.5,207.5 269.5,207.5 273.5,207.5C 273.873,210.574 274.539,213.574 275.5,216.5C 271.036,217.327 266.536,217.994 262,218.5C 259.282,218.436 257.115,217.436 255.5,215.5C 255.123,213.742 254.456,212.075 253.5,210.5C 256,209.641 258.333,208.641 260.5,207.5 Z"/></g>
<g><path style="opacity:0.298" fill="#efe6f8" d="M 95.5,209.5 C 127.305,214.321 159.305,216.321 191.5,215.5C 191.5,215.833 191.5,216.167 191.5,216.5C 170.147,216.777 148.813,216.277 127.5,215C 116.534,214.117 105.867,212.284 95.5,209.5 Z"/></g>
<g><path style="opacity:0.612" fill="#c0ade2" d="M 279.5,198.5 C 278.337,207.834 281.337,215.501 288.5,221.5C 282.718,218.61 279.385,213.943 278.5,207.5C 278.19,204.287 278.523,201.287 279.5,198.5 Z"/></g>
<g><path style="opacity:0.973" fill="#d7cce8" d="M 225.5,225.5 C 227.78,223.777 230.447,223.111 233.5,223.5C 233.664,220.813 233.497,218.146 233,215.5C 232.439,214.978 231.772,214.645 231,214.5C 217.871,215.604 204.705,216.271 191.5,216.5C 191.5,216.167 191.5,215.833 191.5,215.5C 205.511,214.543 219.511,213.71 233.5,213C 235.058,216.388 236.392,219.888 237.5,223.5C 233.645,225.003 229.645,225.67 225.5,225.5 Z"/></g>
<g><path style="opacity:0.522" fill="#e6ddf5" d="M 237.5,214.5 C 239.729,217.19 241.396,220.19 242.5,223.5C 244.007,228.035 245.007,232.701 245.5,237.5C 242.462,230.057 239.796,222.391 237.5,214.5 Z"/></g>
<g><path style="opacity:0.251" fill="#c0ace1" d="M 318.5,192.5 C 323.904,203.419 321.904,212.919 312.5,221C 311.255,221.791 309.922,222.291 308.5,222.5C 319.171,215.118 322.504,205.118 318.5,192.5 Z"/></g>
<g><path style="opacity:1" fill="#c7b9e0" d="M 65.5,215.5 C 74.2076,216.347 82.8743,217.513 91.5,219C 99.4114,221.419 107.411,223.252 115.5,224.5C 98.3666,223.424 81.7,220.424 65.5,215.5 Z"/></g>
<g><path style="opacity:0.986" fill="#d0c5e4" d="M 255.5,217.5 C 255.5,216.833 255.5,216.167 255.5,215.5C 257.115,217.436 259.282,218.436 262,218.5C 266.536,217.994 271.036,217.327 275.5,216.5C 274.539,213.574 273.873,210.574 273.5,207.5C 269.5,207.5 265.5,207.5 261.5,207.5C 265.575,205.882 269.908,204.882 274.5,204.5C 275.032,208.961 276.032,213.294 277.5,217.5C 271.125,218.575 264.792,219.908 258.5,221.5C 256.532,220.9 255.532,219.567 255.5,217.5 Z"/></g>
<g><path style="opacity:0.655" fill="#b9a6d7" d="M 288.5,221.5 C 294.012,223.123 299.678,223.79 305.5,223.5C 301.689,224.645 297.689,224.812 293.5,224C 291.509,223.626 289.842,222.793 288.5,221.5 Z"/></g>
<g><path style="opacity:0.306" fill="#f0e9f9" d="M 93.5,225.5 C 97.3946,224.972 101.395,225.472 105.5,227C 105.833,227.333 106.167,227.667 106.5,228C 105.901,229.622 105.234,231.122 104.5,232.5C 104.5,230.833 104.5,229.167 104.5,227.5C 103.5,227.5 102.5,227.5 101.5,227.5C 98.885,226.709 96.2184,226.043 93.5,225.5 Z"/></g>
<g><path style="opacity:0.902" fill="#d0c4e7" d="M 115.5,224.5 C 151.81,226.727 188.143,227.06 224.5,225.5C 188.128,229.677 151.795,229.343 115.5,224.5 Z"/></g>
<g><path style="opacity:0.235" fill="#ebe0f9" d="M 93.5,225.5 C 92.6018,230.534 90.9351,235.201 88.5,239.5C 89.3982,234.466 91.0649,229.799 93.5,225.5 Z"/></g>
<g><path style="opacity:1" fill="#baa5df" d="M 93.5,225.5 C 96.2184,226.043 98.885,226.709 101.5,227.5C 102.018,228.577 102.352,229.744 102.5,231C 100.841,236.131 99.3405,241.297 98,246.5C 94.6064,247.456 91.1064,247.789 87.5,247.5C 87.8333,244.833 88.1667,242.167 88.5,239.5C 90.9351,235.201 92.6018,230.534 93.5,225.5 Z"/></g>
<g><path style="opacity:1" fill="#ccc0e2" d="M 101.5,227.5 C 102.5,227.5 103.5,227.5 104.5,227.5C 104.5,229.167 104.5,230.833 104.5,232.5C 103.109,237.844 101.609,243.177 100,248.5C 99.4806,249.516 98.6473,250.182 97.5,250.5C 93.8045,249.914 90.1379,249.247 86.5,248.5C 85.9028,245.275 86.5695,242.275 88.5,239.5C 88.1667,242.167 87.8333,244.833 87.5,247.5C 91.1064,247.789 94.6064,247.456 98,246.5C 99.3405,241.297 100.841,236.131 102.5,231C 102.352,229.744 102.018,228.577 101.5,227.5 Z"/></g>
<g><path style="opacity:1" fill="#baa6de" d="M 251.5,219.5 C 252.143,221.076 253.143,222.41 254.5,223.5C 254.5,223.833 254.5,224.167 254.5,224.5C 258.234,241.973 262.568,259.307 267.5,276.5C 268.702,285.994 268.702,295.327 267.5,304.5C 268.064,289.5 266.231,274.833 262,260.5C 260.997,266.145 261.83,271.478 264.5,276.5C 264.167,277.167 263.833,277.833 263.5,278.5C 265.79,288.133 265.956,297.799 264,307.5C 262.817,308.731 261.651,308.731 260.5,307.5C 258.058,301.456 256.891,295.123 257,288.5C 255.031,291.848 254.031,295.514 254,299.5C 253.329,298.748 252.496,298.414 251.5,298.5C 253.703,288.456 254.036,278.456 252.5,268.5C 252.06,257.617 249.726,247.284 245.5,237.5C 245.007,232.701 244.007,228.035 242.5,223.5C 246.581,226.687 248.748,231.02 249,236.5C 250.46,234.578 252.127,233.911 254,234.5C 253.429,229.801 252.596,224.801 251.5,219.5 Z"/></g>
<g><path style="opacity:1" fill="#d2c6e8" d="M 254.5,224.5 C 266.008,250.543 271.174,277.876 270,306.5C 269.273,313.698 266.107,319.531 260.5,324C 258.846,324.608 257.179,325.108 255.5,325.5C 257.533,323.247 259.866,321.247 262.5,319.5C 264.64,314.584 266.307,309.584 267.5,304.5C 268.702,295.327 268.702,285.994 267.5,276.5C 262.568,259.307 258.234,241.973 254.5,224.5 Z"/></g>
<g><path style="opacity:0.073" fill="#e4d2f3" d="M 93.5,253.5 C 88.6812,253.352 84.0145,254.018 79.5,255.5C 83.8858,252.569 88.5525,251.903 93.5,253.5 Z"/></g>
<g><path style="opacity:0.267" fill="#eae2f6" d="M 245.5,237.5 C 249.726,247.284 252.06,257.617 252.5,268.5C 250.357,258.249 248.024,247.916 245.5,237.5 Z"/></g>
<g><path style="opacity:0.573" fill="#cec1e8" d="M 94.5,253.5 C 96.5529,253.402 98.2196,254.069 99.5,255.5C 97.302,255.88 95.6354,255.213 94.5,253.5 Z"/></g>
<g><path style="opacity:1" fill="#784dc4" d="M 108.5,280.5 C 108.167,282.5 107.833,284.5 107.5,286.5C 107.5,286.833 107.5,287.167 107.5,287.5C 104.911,288.419 102.911,290.086 101.5,292.5C 101.158,293.338 100.492,293.672 99.5,293.5C 97.4471,293.402 95.7804,294.069 94.5,295.5C 89.7385,296.891 85.0718,296.558 80.5,294.5C 80.0269,293.094 79.0269,292.427 77.5,292.5C 76.8333,291.5 76.1667,290.5 75.5,289.5C 71.8044,282.347 70.1378,274.681 70.5,266.5C 73.6352,266.452 75.3019,264.785 75.5,261.5C 77.0709,260.691 78.7376,260.357 80.5,260.5C 80.5,259.167 80.5,257.833 80.5,256.5C 85.1667,255.167 89.8333,255.167 94.5,256.5C 94.1215,263.076 96.6215,264.409 102,260.5C 102.925,261.047 103.758,261.713 104.5,262.5C 105.222,264.944 106.222,267.278 107.5,269.5C 107.061,271.104 106.394,272.604 105.5,274C 106.01,275.826 106.844,275.993 108,274.5C 108.495,276.473 108.662,278.473 108.5,280.5 Z"/></g>
<g><path style="opacity:0.635" fill="#cdb5ee" d="M 79.5,255.5 C 79.0269,256.906 78.0269,257.573 76.5,257.5C 76.9731,256.094 77.9731,255.427 79.5,255.5 Z"/></g>
<g><path style="opacity:0.133" fill="#e2d3ef" d="M 99.5,255.5 C 101.027,255.427 102.027,256.094 102.5,257.5C 100.973,257.573 99.9731,256.906 99.5,255.5 Z"/></g>
<g><path style="opacity:0.004" fill="#ebe3f9" d="M 102.5,257.5 C 104.833,257.833 106.167,259.167 106.5,261.5C 104.833,260.5 103.5,259.167 102.5,257.5 Z"/></g>
<g><path style="opacity:0.678" fill="#eae8f0" d="M 177.5,264.5 C 177.631,263.761 177.464,263.094 177,262.5C 175.89,264.037 174.39,264.703 172.5,264.5C 172.975,267.313 171.975,269.313 169.5,270.5C 169.703,268.956 170.37,267.622 171.5,266.5C 163.306,255.473 155.306,244.306 147.5,233C 148,232.5 148.5,232 149,231.5C 156.952,242.453 165.285,253.12 174,263.5C 183.048,252.787 191.714,241.787 200,230.5C 200.5,231 201,231.5 201.5,232C 194.022,243.298 186.022,254.131 177.5,264.5 Z"/></g>
<g><path style="opacity:0.455" fill="#ccbce8" d="M 76.5,257.5 C 74.7267,260.06 72.7267,262.393 70.5,264.5C 71.3481,261.112 73.3481,258.779 76.5,257.5 Z"/></g>
<g><path style="opacity:0.38" fill="#d4c2ec" d="M 106.5,261.5 C 107.906,261.973 108.573,262.973 108.5,264.5C 107.094,264.027 106.427,263.027 106.5,261.5 Z"/></g>
<g><path style="opacity:1" fill="#7651bd" d="M 93.5,253.5 C 93.8333,253.5 94.1667,253.5 94.5,253.5C 95.6354,255.213 97.302,255.88 99.5,255.5C 99.9731,256.906 100.973,257.573 102.5,257.5C 103.5,259.167 104.833,260.5 106.5,261.5C 106.427,263.027 107.094,264.027 108.5,264.5C 109.636,269.985 109.636,275.319 108.5,280.5C 108.662,278.473 108.495,276.473 108,274.5C 106.844,275.993 106.01,275.826 105.5,274C 106.394,272.604 107.061,271.104 107.5,269.5C 106.222,267.278 105.222,264.944 104.5,262.5C 103.758,261.713 102.925,261.047 102,260.5C 96.6215,264.409 94.1215,263.076 94.5,256.5C 89.8333,255.167 85.1667,255.167 80.5,256.5C 80.5,257.833 80.5,259.167 80.5,260.5C 78.7376,260.357 77.0709,260.691 75.5,261.5C 75.3019,264.785 73.6352,266.452 70.5,266.5C 70.5,265.833 70.5,265.167 70.5,264.5C 72.7267,262.393 74.7267,260.06 76.5,257.5C 78.0269,257.573 79.0269,256.906 79.5,255.5C 84.0145,254.018 88.6812,253.352 93.5,253.5 Z"/></g>
<g><path style="opacity:0.384" fill="#cfbced" d="M 70.5,264.5 C 70.5,265.167 70.5,265.833 70.5,266.5C 66.7301,275.331 68.3968,282.997 75.5,289.5C 76.1667,290.5 76.8333,291.5 77.5,292.5C 72.3533,290.175 69.1866,286.175 68,280.5C 67.3333,276.5 67.3333,272.5 68,268.5C 68.2004,266.68 69.0337,265.347 70.5,264.5 Z"/></g>
<g><path style="opacity:0.914" fill="#b8a2db" d="M 108.5,264.5 C 112.684,272.009 112.351,279.342 107.5,286.5C 107.833,284.5 108.167,282.5 108.5,280.5C 109.636,275.319 109.636,269.985 108.5,264.5 Z"/></g>
<g><path style="opacity:0.475" fill="#e2dced" d="M 177.5,264.5 C 177.343,265.873 177.51,267.207 178,268.5C 181.112,271.101 183.612,274.101 185.5,277.5C 181.168,273.468 180.502,274.135 183.5,279.5C 180.551,276.212 177.551,272.879 174.5,269.5C 171.452,271.882 168.785,274.548 166.5,277.5C 166.631,276.761 166.464,276.094 166,275.5C 162.571,279.439 158.737,282.772 154.5,285.5C 159.167,280.167 164.167,275.167 169.5,270.5C 171.975,269.313 172.975,267.313 172.5,264.5C 174.39,264.703 175.89,264.037 177,262.5C 177.464,263.094 177.631,263.761 177.5,264.5 Z"/></g>
<g><path style="opacity:1" fill="#7855ba" d="M 70.5,266.5 C 70.1378,274.681 71.8044,282.347 75.5,289.5C 68.3968,282.997 66.7301,275.331 70.5,266.5 Z"/></g>
<g><path style="opacity:0.075" fill="#e1d3f4" d="M 107.5,287.5 C 106.089,289.914 104.089,291.581 101.5,292.5C 102.911,290.086 104.911,288.419 107.5,287.5 Z"/></g>
<g><path style="opacity:0.365" fill="#cfb9f1" d="M 77.5,292.5 C 79.0269,292.427 80.0269,293.094 80.5,294.5C 78.9731,294.573 77.9731,293.906 77.5,292.5 Z"/></g>
<g><path style="opacity:0.451" fill="#baa6e3" d="M 99.5,293.5 C 98.2196,294.931 96.5529,295.598 94.5,295.5C 95.7804,294.069 97.4471,293.402 99.5,293.5 Z"/></g>
<g><path style="opacity:0.82" fill="#e2d7f2" d="M 252.5,268.5 C 254.036,278.456 253.703,288.456 251.5,298.5C 249.732,300.508 248.066,302.674 246.5,305C 244.559,306.903 242.226,307.736 239.5,307.5C 245.55,305.275 249.383,300.942 251,294.5C 252.339,285.893 252.839,277.226 252.5,268.5 Z"/></g>
<g><path style="opacity:1" fill="#cdc1e5" d="M 166.5,277.5 C 157.705,288.129 148.038,297.962 137.5,307C 134.536,309.81 131.202,311.976 127.5,313.5C 127.5,312.5 127.5,311.5 127.5,310.5C 128.833,310.5 130.167,310.5 131.5,310.5C 131.5,309.167 131.5,307.833 131.5,306.5C 135.224,307.227 137.891,305.894 139.5,302.5C 138.667,302.167 137.833,301.833 137,301.5C 134.941,302.618 132.774,303.285 130.5,303.5C 138.819,297.998 146.819,291.998 154.5,285.5C 158.737,282.772 162.571,279.439 166,275.5C 166.464,276.094 166.631,276.761 166.5,277.5 Z"/></g>
<g><path style="opacity:1" fill="#ccc1e3" d="M 185.5,277.5 C 194.231,285.571 203.231,293.238 212.5,300.5C 213.306,301.728 214.306,302.728 215.5,303.5C 214.5,303.5 213.5,303.5 212.5,303.5C 212.615,305.947 213.615,307.947 215.5,309.5C 203.923,300.593 193.256,290.593 183.5,279.5C 180.502,274.135 181.168,273.468 185.5,277.5 Z"/></g>
<g><path style="opacity:0.2" fill="#f1e9f9" d="M 212.5,300.5 C 217.479,302.654 222.479,304.821 227.5,307C 231.486,307.499 235.486,307.666 239.5,307.5C 235.354,308.647 231.02,308.814 226.5,308C 222.812,306.487 219.145,304.987 215.5,303.5C 214.306,302.728 213.306,301.728 212.5,300.5 Z"/></g>
<g><path style="opacity:1" fill="#baa5df" d="M 267.5,304.5 C 266.307,309.584 264.64,314.584 262.5,319.5C 259.866,321.247 257.533,323.247 255.5,325.5C 252.167,325.5 248.833,325.5 245.5,325.5C 242.595,324.372 239.928,322.705 237.5,320.5C 233.821,319.401 230.154,318.401 226.5,317.5C 222.268,315.6 218.601,312.933 215.5,309.5C 213.615,307.947 212.615,305.947 212.5,303.5C 213.5,303.5 214.5,303.5 215.5,303.5C 219.145,304.987 222.812,306.487 226.5,308C 231.02,308.814 235.354,308.647 239.5,307.5C 242.226,307.736 244.559,306.903 246.5,305C 248.066,302.674 249.732,300.508 251.5,298.5C 252.496,298.414 253.329,298.748 254,299.5C 254.031,295.514 255.031,291.848 257,288.5C 256.891,295.123 258.058,301.456 260.5,307.5C 261.651,308.731 262.817,308.731 264,307.5C 265.956,297.799 265.79,288.133 263.5,278.5C 263.833,277.833 264.167,277.167 264.5,276.5C 261.83,271.478 260.997,266.145 262,260.5C 266.231,274.833 268.064,289.5 267.5,304.5 Z"/></g>
<g><path style="opacity:1" fill="#baa4df" d="M 121.5,317.5 C 116.92,318.777 112.42,320.443 108,322.5C 105.692,322.12 103.359,321.786 101,321.5C 100.383,322.449 100.549,323.282 101.5,324C 91.8486,324.928 85.6819,320.761 83,311.5C 82.2917,310.619 81.4584,309.953 80.5,309.5C 80.5,309.167 80.5,308.833 80.5,308.5C 80.1924,306.076 80.5258,303.743 81.5,301.5C 86.1133,302.279 90.78,302.779 95.5,303C 96.1667,304.333 96.8333,305.667 97.5,307C 99.6228,307.815 101.623,308.815 103.5,310C 111.072,311.248 118.405,311.748 125.5,311.5C 125.833,311.833 126.167,312.167 126.5,312.5C 125.264,313.357 123.931,314.023 122.5,314.5C 121.614,315.325 121.281,316.325 121.5,317.5 Z"/></g>
<g><path style="opacity:1" fill="#bba9db" d="M 99.5,300.5 C 101.5,302.167 103.5,303.833 105.5,305.5C 105.577,306.75 106.244,307.583 107.5,308C 114.901,309.868 122.068,309.035 129,305.5C 130.03,305.164 130.53,304.497 130.5,303.5C 132.774,303.285 134.941,302.618 137,301.5C 137.833,301.833 138.667,302.167 139.5,302.5C 137.891,305.894 135.224,307.227 131.5,306.5C 131.5,307.833 131.5,309.167 131.5,310.5C 130.167,310.5 128.833,310.5 127.5,310.5C 127.5,311.5 127.5,312.5 127.5,313.5C 125.853,315.326 123.853,316.66 121.5,317.5C 121.281,316.325 121.614,315.325 122.5,314.5C 123.931,314.023 125.264,313.357 126.5,312.5C 126.167,312.167 125.833,311.833 125.5,311.5C 118.405,311.748 111.072,311.248 103.5,310C 101.623,308.815 99.6228,307.815 97.5,307C 96.8333,305.667 96.1667,304.333 95.5,303C 90.78,302.779 86.1133,302.279 81.5,301.5C 80.5258,303.743 80.1924,306.076 80.5,308.5C 79.5269,306.052 79.1936,303.385 79.5,300.5C 86.1667,301.833 92.8333,301.833 99.5,300.5 Z"/></g>
<g><path style="opacity:0.047" fill="#ede2f7" d="M 130.5,303.5 C 130.53,304.497 130.03,305.164 129,305.5C 122.068,309.035 114.901,309.868 107.5,308C 106.244,307.583 105.577,306.75 105.5,305.5C 114.044,308.427 122.377,307.761 130.5,303.5 Z"/></g>
<g><path style="opacity:0.259" fill="#e7def4" d="M 99.5,300.5 C 92.8333,301.833 86.1667,301.833 79.5,300.5C 79.1936,303.385 79.5269,306.052 80.5,308.5C 80.5,308.833 80.5,309.167 80.5,309.5C 81.8622,314.929 84.5289,319.595 88.5,323.5C 84.1157,321.606 81.2824,318.273 80,313.5C 78.6725,308.543 78.0058,303.543 78,298.5C 84.4506,299.682 91.1173,299.682 98,298.5C 98.7172,299.044 99.2172,299.711 99.5,300.5 Z"/></g>
<g><path style="opacity:1" fill="#c1b2de" d="M 80.5,309.5 C 81.4584,309.953 82.2917,310.619 83,311.5C 85.6819,320.761 91.8486,324.928 101.5,324C 100.549,323.282 100.383,322.449 101,321.5C 103.359,321.786 105.692,322.12 108,322.5C 112.42,320.443 116.92,318.777 121.5,317.5C 111.517,325.553 100.517,327.553 88.5,323.5C 84.5289,319.595 81.8622,314.929 80.5,309.5 Z"/></g>
<g><path style="opacity:0.969" fill="#cec1e4" d="M 226.5,317.5 C 230.154,318.401 233.821,319.401 237.5,320.5C 239.928,322.705 242.595,324.372 245.5,325.5C 238.433,324.373 232.1,321.706 226.5,317.5 Z"/></g>
</svg>
